<svg width="18" height="19" viewBox="0 0 18 19" fill="none" xmlns="http://www.w3.org/2000/svg">
<path d="M17.0025 0.253906H0.9975C0.733553 0.255869 0.480974 0.361592 0.29433 0.548236C0.107686 0.73488 0.00196251 0.987459 0 1.25141V17.2564C0.00196251 17.5204 0.107686 17.7729 0.29433 17.9596C0.480974 18.1462 0.733553 18.2519 0.9975 18.2539H9.615V11.2939H7.275V8.57141H9.615V6.56891C9.615 4.24391 11.0325 2.97641 13.1175 2.97641C13.815 2.97641 14.5125 2.97641 15.21 3.08141V5.50391H13.7775C12.645 5.50391 12.4275 6.04391 12.4275 6.83141V8.56391H15.1275L14.775 11.2864H12.4275V18.2539H17.0025C17.2664 18.2519 17.519 18.1462 17.7057 17.9596C17.8923 17.7729 17.998 17.5204 18 17.2564V1.25141C17.998 0.987459 17.8923 0.73488 17.7057 0.548236C17.519 0.361592 17.2664 0.255869 17.0025 0.253906Z" fill="white"/>
</svg>
