<svg width="24" height="24" viewBox="0 0 24 24" fill="none" xmlns="http://www.w3.org/2000/svg">
<path d="M16.8066 8.27133C17.403 8.27133 17.8866 7.7878 17.8866 7.19133C17.8866 6.59486 17.403 6.11133 16.8066 6.11133C16.2101 6.11133 15.7266 6.59486 15.7266 7.19133C15.7266 7.7878 16.2101 8.27133 16.8066 8.27133Z" fill="white"/>
<path d="M12.0004 7.375C11.0864 7.375 10.1928 7.64605 9.43284 8.15386C8.67284 8.66168 8.08049 9.38346 7.7307 10.2279C7.38091 11.0724 7.28939 12.0016 7.46771 12.8981C7.64603 13.7946 8.08619 14.6181 8.73251 15.2644C9.37884 15.9107 10.2023 16.3509 11.0988 16.5292C11.9953 16.7075 12.9245 16.616 13.769 16.2662C14.6134 15.9164 15.3352 15.3241 15.843 14.5641C16.3509 13.8041 16.6219 12.9105 16.6219 11.9965C16.6221 11.3895 16.5027 10.7885 16.2705 10.2277C16.0383 9.6669 15.6979 9.15735 15.2687 8.72817C14.8396 8.29898 14.33 7.95857 13.7692 7.72639C13.2084 7.49421 12.6074 7.3748 12.0004 7.375ZM12.0004 14.9965C11.4071 14.9965 10.827 14.8206 10.3337 14.4909C9.84035 14.1613 9.45583 13.6927 9.22877 13.1445C9.00171 12.5964 8.9423 11.9932 9.05805 11.4112C9.17381 10.8293 9.45953 10.2947 9.87909 9.87518C10.2986 9.45562 10.8332 9.1699 11.4151 9.05414C11.9971 8.93839 12.6003 8.9978 13.1485 9.22486C13.6966 9.45192 14.1652 9.83644 14.4948 10.3298C14.8245 10.8231 15.0004 11.4032 15.0004 11.9965C15.0004 12.7921 14.6843 13.5552 14.1217 14.1178C13.5591 14.6804 12.7961 14.9965 12.0004 14.9965Z" fill="white"/>
<path d="M12 4.61759C14.403 4.61759 14.688 4.62659 15.6368 4.67009C16.2074 4.67624 16.7728 4.78103 17.3077 4.97984C17.6959 5.12982 18.0484 5.35928 18.3426 5.6535C18.6368 5.94773 18.8663 6.30021 19.0163 6.68834C19.2151 7.22332 19.3199 7.78865 19.326 8.35934C19.3695 9.30809 19.3785 9.59309 19.3785 11.9968C19.3785 14.4006 19.3695 14.6841 19.326 15.6328C19.3199 16.2035 19.2151 16.7689 19.0163 17.3038C18.8663 17.692 18.6368 18.0445 18.3426 18.3387C18.0484 18.6329 17.6959 18.8624 17.3077 19.0123C16.7728 19.2112 16.2074 19.3159 15.6368 19.3221C14.688 19.3656 14.403 19.3746 12 19.3746C9.597 19.3746 9.312 19.3656 8.36325 19.3221C7.79256 19.3159 7.22723 19.2112 6.69225 19.0123C6.30412 18.8624 5.95163 18.6329 5.65741 18.3387C5.36318 18.0445 5.13372 17.692 4.98375 17.3038C4.78494 16.7689 4.68015 16.2035 4.674 15.6328C4.6305 14.6841 4.6215 14.3991 4.6215 11.9961C4.6215 9.59309 4.6305 9.30809 4.674 8.35934C4.68015 7.78865 4.78494 7.22332 4.98375 6.68834C5.13372 6.30021 5.36318 5.94773 5.65741 5.6535C5.95163 5.35928 6.30412 5.12982 6.69225 4.97984C7.22723 4.78103 7.79256 4.67624 8.36325 4.67009C9.312 4.62659 9.597 4.61759 12 4.61759ZM12 2.99609C9.55575 2.99609 9.249 3.00659 8.289 3.05009C7.54257 3.06506 6.80409 3.20657 6.105 3.46859C5.50714 3.69998 4.96417 4.05365 4.51086 4.50696C4.05755 4.96027 3.70388 5.50323 3.4725 6.10109C3.2104 6.80042 3.06889 7.53916 3.054 8.28584C3.0105 9.24584 3 9.55109 3 11.9961C3 14.4411 3.0105 14.7471 3.054 15.7071C3.06897 16.4535 3.21048 17.192 3.4725 17.8911C3.70388 18.489 4.05755 19.0319 4.51086 19.4852C4.96417 19.9385 5.50714 20.2922 6.105 20.5236C6.80433 20.7857 7.54307 20.9272 8.28975 20.9421C9.24975 20.9856 9.55575 20.9961 12 20.9961C14.4443 20.9961 14.751 20.9856 15.711 20.9421C16.4577 20.9272 17.1964 20.7857 17.8958 20.5236C18.4936 20.2922 19.0366 19.9385 19.4899 19.4852C19.9432 19.0319 20.2969 18.489 20.5282 17.8911C20.7901 17.1917 20.9314 16.453 20.946 15.7063C20.9895 14.7463 21 14.4411 21 11.9961C21 9.55109 20.9895 9.24509 20.946 8.28509C20.931 7.53866 20.7895 6.80018 20.5275 6.10109C20.2961 5.50323 19.9424 4.96027 19.4891 4.50696C19.0358 4.05365 18.4929 3.69998 17.895 3.46859C17.1956 3.20675 16.4569 3.06549 15.7103 3.05084C14.7503 3.00584 14.445 2.99609 12 2.99609Z" fill="white"/>
</svg>
